<svg width="40" height="30" viewBox="0 0 40 30" fill="none" xmlns="http://www.w3.org/2000/svg">
<path id="Vector" d="M30.9091 26.3636C30.1858 26.3636 29.4921 26.0763 28.9806 25.5648C28.4692 25.0534 28.1818 24.3597 28.1818 23.6364C28.1818 22.913 28.4692 22.2194 28.9806 21.7079C29.4921 21.1964 30.1858 20.9091 30.9091 20.9091C31.6324 20.9091 32.3261 21.1964 32.8376 21.7079C33.349 22.2194 33.6364 22.913 33.6364 23.6364C33.6364 24.3597 33.349 25.0534 32.8376 25.5648C32.3261 26.0763 31.6324 26.3636 30.9091 26.3636ZM33.6364 10L37.2 14.5455H29.0909V10M9.09091 26.3636C8.36759 26.3636 7.6739 26.0763 7.16244 25.5648C6.65097 25.0534 6.36364 24.3597 6.36364 23.6364C6.36364 22.913 6.65097 22.2194 7.16244 21.7079C7.6739 21.1964 8.36759 20.9091 9.09091 20.9091C9.81423 20.9091 10.5079 21.1964 11.0194 21.7079C11.5308 22.2194 11.8182 22.913 11.8182 23.6364C11.8182 24.3597 11.5308 25.0534 11.0194 25.5648C10.5079 26.0763 9.81423 26.3636 9.09091 26.3636ZM34.5455 7.27273H29.0909V0H3.63636C1.61818 0 0 1.61818 0 3.63636V23.6364H3.63636C3.63636 25.083 4.21104 26.4704 5.23396 27.4933C6.25689 28.5162 7.64427 29.0909 9.09091 29.0909C10.5375 29.0909 11.9249 28.5162 12.9479 27.4933C13.9708 26.4704 14.5455 25.083 14.5455 23.6364H25.4545C25.4545 25.083 26.0292 26.4704 27.0521 27.4933C28.0751 28.5162 29.4625 29.0909 30.9091 29.0909C32.3557 29.0909 33.7431 28.5162 34.766 27.4933C35.789 26.4704 36.3636 25.083 36.3636 23.6364H40V14.5455L34.5455 7.27273Z" fill="white"/>
</svg>
